<svg xmlns="http://www.w3.org/2000/svg" width="35.382" height="31.037" viewBox="0 0 35.382 31.037">
  <g id="Komponente_3_1" data-name="Komponente 3 – 1" transform="translate(0 0)">
    <path id="Pfad_158" data-name="Pfad 158" d="M917.08,412.8a2.472,2.472,0,0,0,2.034,1.05h0a2.472,2.472,0,0,0,2.034-1.05l7.571-10.9a2.29,2.29,0,0,0,.154-2.4,2.454,2.454,0,0,0-2.189-1.3H923.4v-6.414a4.288,4.288,0,0,0-8.571,0v6.414h-3.285a2.451,2.451,0,0,0-2.188,1.3,2.288,2.288,0,0,0,.154,2.4Zm-6.624-12.727a1.2,1.2,0,0,1,1.088-.638h3.906a.62.62,0,0,0,.62-.621v-7.034a3.048,3.048,0,0,1,6.088,0v7.034a.621.621,0,0,0,.621.621h3.906a1.2,1.2,0,0,1,1.089.638,1.055,1.055,0,0,1-.074,1.121l-7.571,10.9a1.213,1.213,0,0,1-1.014.516h0a1.213,1.213,0,0,1-1.014-.516l-7.571-10.9A1.053,1.053,0,0,1,910.456,400.071Z" transform="translate(-901.423 -387.64)" fill="#fff"/>
    <path id="Pfad_159" data-name="Pfad 159" d="M936.184,417.435H902.043a.621.621,0,0,0,0,1.242h34.141a.621.621,0,0,0,0-1.242Z" transform="translate(-901.423 -387.64)" fill="#fff"/>
  </g>
</svg>
