<svg xmlns="http://www.w3.org/2000/svg" width="32.258" height="26.598" viewBox="0 0 32.258 26.598">
  <g id="Komponente_2_1" data-name="Komponente 2 – 1" transform="translate(0 0)">
    <path id="Pfad_151" data-name="Pfad 151" d="M851.073,499.928h16.192a.566.566,0,0,0,0-1.132H851.073a.566.566,0,0,0,0,1.132Z" transform="translate(-843.364 -494.28)" fill="#fff"/>
    <path id="Pfad_152" data-name="Pfad 152" d="M861.316,503.7a.565.565,0,0,0-.566-.566h-9.677a.566.566,0,0,0,0,1.132h9.677A.565.565,0,0,0,861.316,503.7Z" transform="translate(-843.364 -494.28)" fill="#fff"/>
    <path id="Pfad_153" data-name="Pfad 153" d="M859.76,507.2h-8.687a.566.566,0,0,0,0,1.132h8.687a.566.566,0,0,0,0-1.132Z" transform="translate(-843.364 -494.28)" fill="#fff"/>
    <path id="Pfad_154" data-name="Pfad 154" d="M859.76,511.413h-8.687a.566.566,0,0,0,0,1.132h8.687a.566.566,0,0,0,0-1.132Z" transform="translate(-843.364 -494.28)" fill="#fff"/>
    <path id="Pfad_155" data-name="Pfad 155" d="M872.479,494.33a.564.564,0,0,0-.229-.05H852.53c-2.347,0-4.256,1.589-4.256,3.542V515.69H843.93a.566.566,0,0,0-.566.566v.515c0,2.265,2.223,4.107,4.955,4.107h18.644a.567.567,0,0,0,.236-.054,3.73,3.73,0,0,0,3.512-3.412V498.9h4.345a.566.566,0,0,0,.566-.566V497.4A3.353,3.353,0,0,0,872.479,494.33Zm-10.426,25.416H848.319c-2.086,0-3.787-1.307-3.822-2.924h17a3.807,3.807,0,0,0,1.552,2.924Zm4.5,0h-.109c-2.109,0-3.823-1.334-3.823-2.975v-.515a.556.556,0,0,0-.136-.355.548.548,0,0,0-.247-.173.533.533,0,0,0-.183-.038H849.406V497.822c0-1.329,1.4-2.41,3.124-2.41h17.277a1.714,1.714,0,0,0-.228.838v21.162C869.58,518.7,868.221,519.746,866.551,519.746Zm7.939-21.976h-3.779v-1.52c0-.454.538-.838,1.176-.838,1.435,0,2.6.893,2.6,1.991Z" transform="translate(-843.364 -494.28)" fill="#fff"/>
    <path id="Pfad_156" data-name="Pfad 156" d="M864.985,503.567a3.97,3.97,0,0,0-4.058,3.867,3.821,3.821,0,0,0,1.818,3.219.484.484,0,0,0-.017.086V512.8a.74.74,0,0,0,.337.621.759.759,0,0,0,.419.126.787.787,0,0,0,.3-.062l1.128-.487,1.128.487a.762.762,0,0,0,.723-.064.743.743,0,0,0,.337-.621v-2.063a.132.132,0,0,0-.005-.021,3.819,3.819,0,0,0,1.944-3.284A3.97,3.97,0,0,0,864.985,503.567Zm.987,8.656-.752-.324a.771.771,0,0,0-.607,0l-.753.325V511.13a3.823,3.823,0,0,0,2.112.041Zm-.987-2.055a2.741,2.741,0,1,1,2.927-2.734A2.837,2.837,0,0,1,864.985,510.168Z" transform="translate(-843.364 -494.28)" fill="#fff"/>
    <path id="Pfad_157" data-name="Pfad 157" d="M866.5,506.315l-.532-.073-.232-.444a.844.844,0,0,0-.751-.452h0a.846.846,0,0,0-.753.452l-.231.444-.532.073a.833.833,0,0,0-.691.577.817.817,0,0,0,.23.85l.365.336-.084.467a.819.819,0,0,0,.317.8.852.852,0,0,0,.9.081l.482-.239.482.239a.851.851,0,0,0,.9-.081.818.818,0,0,0,.319-.8l-.085-.466.365-.337a.815.815,0,0,0,.229-.85A.832.832,0,0,0,866.5,506.315Zm-.794,1.045a.82.82,0,0,0-.255.751l.01.054-.095-.048a.869.869,0,0,0-.764,0l-.1.048.01-.054a.821.821,0,0,0-.254-.751l-.012-.01.048-.007a.846.846,0,0,0,.634-.443l.051-.1.052.1a.844.844,0,0,0,.635.442l.046.007Z" transform="translate(-843.364 -494.28)" fill="#fff"/>
  </g>
</svg>
