<svg id="Komponente_3_1" data-name="Komponente 3 – 1" xmlns="http://www.w3.org/2000/svg" width="172" height="50" viewBox="0 0 172 50">
  <g id="Komponente_2_1" data-name="Komponente 2 – 1">
    <path id="Pfad_165" data-name="Pfad 165" d="M573.961,272.871a5.26,5.26,0,1,0,5.258,5.26,5.26,5.26,0,0,0-5.258-5.26" transform="translate(-447.662 -272.871)" fill="#9b2423"/>
    <path id="Pfad_166" data-name="Pfad 166" d="M515.3,298.163a12.169,12.169,0,0,0,5.744-10.688c0-7.38-5.346-13.362-16.59-13.362l-20.369-.01v23.08h-.007v15.485h9.572V300.843l12.255,0,5.239,11.829h10.576Zm-3.941-10.687h0c-.007,3.108-3.023,4.595-6.37,4.595l-11.344-.013v-9.174l12.029-.013c3.108,0,5.678,1.49,5.684,4.595Z" transform="translate(-484.075 -272.34)" fill="#9b2423"/>
    <path id="Pfad_167" data-name="Pfad 167" d="M527.639,282.347c-11.243,0-16.591,5.983-16.591,13.363s5.348,13.363,16.591,13.363l20.367.01V282.338Zm10.811,17.948-12.028.013c-3.109,0-5.68-1.489-5.685-4.595v-.01c.007-3.106,3.021-4.595,6.37-4.595l11.344.013Z" transform="translate(-472.475 -268.752)" fill="#9b2423"/>
    <path id="Pfad_168" data-name="Pfad 168" d="M560.9,282.348l-20.368-.011v36.39h9.57v-9.649l10.8-.006c11.242,0,16.588-5.98,16.588-13.362s-5.346-13.362-16.588-13.362m6.872,13.365c-.006,3.106-3.025,4.595-6.37,4.595l-11.344-.013v-9.174l12.026-.013c3.109,0,5.681,1.489,5.687,4.595Z" transform="translate(-459.793 -268.727)" fill="#9b2423"/>
    <path id="Pfad_169" data-name="Pfad 169" d="M605.893,274.14v11.74l-10.8.006c-11.242,0-16.59,5.982-16.59,13.362s5.348,13.362,16.59,13.362l20.367.011V274.14Zm.013,29.691-12.029.014c-3.109,0-5.678-1.49-5.685-4.6v-.01c.007-3.106,3.02-4.595,6.37-4.595l11.345.013Z" transform="translate(-443.463 -272.324)" fill="#9b2423"/>
  </g>
  <rect id="Rechteck_51" data-name="Rechteck 51" width="9.573" height="26.751" transform="translate(121.512 13.564)" fill="#9b2423"/>
</svg>
